<svg aria-label="Pointmap reconstruction error (AbsRel) for Atlas, Pi3X (posed), π³, VGGT-Ω 1B, Depth Anything 3, MapAnything on their average, then DTU, ETH3D, KITTI, NRGBD, 7-Scenes, Tanks and Temples, and ScanNet. Lower is better; Atlas has the lowest average error at 25.3 thousandths. Starts on the average; swipe right to zoom out to every benchmark." class="block w-full font-sans" height="346" role="img" viewBox="0 0 720 346" width="720" xmlns="http://www.w3.org/2000/svg"><rect width="100%" height="100%" fill="#ffffff"/><desc>Mean absolute-relative pointmap error per dataset for Atlas and five recent baselines; lower is better.</desc><g class="text-grey-150"><line stroke="currentColor" stroke-opacity="0.35" x1="48" x2="714" y1="294" y2="294"></line><text fill="currentColor" font-size="14" text-anchor="end" x="40" y="297">0</text></g><g class="text-grey-150"><line stroke="currentColor" stroke-opacity="0.1" x1="48" x2="714" y1="158.70588235294116" y2="158.70588235294116"></line><text fill="currentColor" font-size="14" text-anchor="end" x="40" y="161.70588235294116">25</text></g><g class="text-grey-150"><line stroke="currentColor" stroke-opacity="0.1" x1="48" x2="714" y1="23.411764705882334" y2="23.411764705882334"></line><text fill="currentColor" font-size="14" text-anchor="end" x="40" y="26.411764705882334">50</text></g><text class="text-grey-150" fill="currentColor" font-size="14" font-weight="500" text-anchor="middle" transform="rotate(-90 10 156)" x="10" y="156">Error (AbsRel ×10⁻³)</text><text class="text-grey-150" fill="currentColor" font-size="14" font-weight="500" text-anchor="middle" x="381" y="330">Benchmark</text><g><g><rect fill="oklch(0.78 0.04 250)" fill-opacity="0.12" height="292" rx="4" width="664" x="48" y="2"></rect><line stroke="oklch(0.78 0.04 250)" stroke-opacity="0.4" stroke-width="1.5" x1="712" x2="712" y1="2" y2="316"></line><g><path aria-expanded="false" aria-haspopup="dialog" class="outline-none focus:outline-none" d="M 195 294 L 195 159.58235294117645 Q 195 157.08235294117645 197.5 157.08235294117645 L 244.5 157.08235294117645 Q 247 157.08235294117645 247 159.58235294117645 L 247 294 Z" data-base-ui-click-trigger="" fill="#1a1a1a" id="base-ui-_R_1t63rak6klubsnlb_" role="button" tabindex="0"></path><text class="text-foreground" fill="currentColor" font-size="14" font-weight="700" pointer-events="none" text-anchor="middle" x="221" y="140.08235294117645">Ours</text><text class="text-foreground" fill="currentColor" font-size="14" pointer-events="none" text-anchor="middle" x="221" y="153.08235294117645">25.3</text></g><g><path aria-expanded="false" aria-haspopup="dialog" class="outline-none focus:outline-none" d="M 259 294 L 259 141.18235294117648 Q 259 138.68235294117648 261.5 138.68235294117648 L 308.5 138.68235294117648 Q 311 138.68235294117648 311 141.18235294117648 L 311 294 Z" data-base-ui-click-trigger="" fill="oklch(0.84 0.07 340)" id="base-ui-_R_1ta3rak6klubsnlb_" role="button" tabindex="0"></path><text class="text-foreground" fill="currentColor" font-size="14" pointer-events="none" text-anchor="middle" x="285" y="134.68235294117648">28.7</text></g><g><path aria-expanded="false" aria-haspopup="dialog" class="outline-none focus:outline-none" d="M 323 294 L 323 108.71176470588235 Q 323 106.21176470588235 325.5 106.21176470588235 L 372.5 106.21176470588235 Q 375 106.21176470588235 375 108.71176470588235 L 375 294 Z" data-base-ui-click-trigger="" fill="oklch(0.8 0.038 175)" id="base-ui-_R_1te3rak6klubsnlb_" role="button" tabindex="0"></path><text class="text-foreground" fill="currentColor" font-size="14" pointer-events="none" text-anchor="middle" x="349" y="102.21176470588235">34.7</text></g><g><path aria-expanded="false" aria-haspopup="dialog" class="outline-none focus:outline-none" d="M 387 294 L 387 99.51176470588231 Q 387 97.01176470588231 389.5 97.01176470588231 L 436.5 97.01176470588231 Q 439 97.01176470588231 439 99.51176470588231 L 439 294 Z" data-base-ui-click-trigger="" fill="oklch(0.78 0.04 250)" id="base-ui-_R_1ti3rak6klubsnlb_" role="button" tabindex="0"></path><text class="text-foreground" fill="currentColor" font-size="14" pointer-events="none" text-anchor="middle" x="413" y="93.01176470588231">36.4</text></g><g><path aria-expanded="false" aria-haspopup="dialog" class="outline-none focus:outline-none" d="M 451 294 L 451 83.81764705882352 Q 451 81.31764705882352 453.5 81.31764705882352 L 500.5 81.31764705882352 Q 503 81.31764705882352 503 83.81764705882352 L 503 294 Z" data-base-ui-click-trigger="" fill="oklch(0.84 0.04 85)" id="base-ui-_R_1tm3rak6klubsnlb_" role="button" tabindex="0"></path><text class="text-foreground" fill="currentColor" font-size="14" pointer-events="none" text-anchor="middle" x="477" y="77.31764705882352">39.3</text></g><g><path aria-expanded="false" aria-haspopup="dialog" class="outline-none focus:outline-none" d="M 515 294 L 515 38.358823529411765 Q 515 35.858823529411765 517.5 35.858823529411765 L 564.5 35.858823529411765 Q 567 35.858823529411765 567 38.358823529411765 L 567 294 Z" data-base-ui-click-trigger="" fill="oklch(0.82 0.035 25)" id="base-ui-_R_1tq3rak6klubsnlb_" role="button" tabindex="0"></path><text class="text-foreground" fill="currentColor" font-size="14" pointer-events="none" text-anchor="middle" x="541" y="31.858823529411765">47.7</text></g><text class="text-foreground" fill="currentColor" font-size="12" font-weight="600" text-anchor="middle" x="381" y="308">Average</text></g><g><g><path aria-expanded="false" aria-haspopup="dialog" class="outline-none focus:outline-none" d="M 875 294 L 875 249.95882352941175 Q 875 247.45882352941175 877.5 247.45882352941175 L 924.5 247.45882352941175 Q 927 247.45882352941175 927 249.95882352941175 L 927 294 Z" data-base-ui-click-trigger="" fill="#1a1a1a" id="base-ui-_R_1t65rak6klubsnlb_" role="button" tabindex="0"></path><text class="text-foreground" fill="currentColor" font-size="14" pointer-events="none" text-anchor="middle" x="901" y="243.45882352941175">8.6</text></g><g><path aria-expanded="false" aria-haspopup="dialog" class="outline-none focus:outline-none" d="M 939 294 L 939 236.4294117647059 Q 939 233.9294117647059 941.5 233.9294117647059 L 988.5 233.9294117647059 Q 991 233.9294117647059 991 236.4294117647059 L 991 294 Z" data-base-ui-click-trigger="" fill="oklch(0.84 0.07 340)" id="base-ui-_R_1ta5rak6klubsnlb_" role="button" tabindex="0"></path><text class="text-foreground" fill="currentColor" font-size="14" pointer-events="none" text-anchor="middle" x="965" y="229.9294117647059">11.1</text></g><g><path aria-expanded="false" aria-haspopup="dialog" class="outline-none focus:outline-none" d="M 1003 294 L 1003 208.8294117647059 Q 1003 206.3294117647059 1005.5 206.3294117647059 L 1052.5 206.3294117647059 Q 1055 206.3294117647059 1055 208.8294117647059 L 1055 294 Z" data-base-ui-click-trigger="" fill="oklch(0.8 0.038 175)" id="base-ui-_R_1te5rak6klubsnlb_" role="button" tabindex="0"></path><text class="text-foreground" fill="currentColor" font-size="14" pointer-events="none" text-anchor="middle" x="1029" y="202.3294117647059">16.2</text></g><g><path aria-expanded="false" aria-haspopup="dialog" class="outline-none focus:outline-none" d="M 1067 294 L 1067 244.00588235294117 Q 1067 241.50588235294117 1069.5 241.50588235294117 L 1116.5 241.50588235294117 Q 1119 241.50588235294117 1119 244.00588235294117 L 1119 294 Z" data-base-ui-click-trigger="" fill="oklch(0.78 0.04 250)" id="base-ui-_R_1ti5rak6klubsnlb_" role="button" tabindex="0"></path><text class="text-foreground" fill="currentColor" font-size="14" pointer-events="none" text-anchor="middle" x="1093" y="237.50588235294117">9.7</text></g><g><path aria-expanded="false" aria-haspopup="dialog" class="outline-none focus:outline-none" d="M 1131 294 L 1131 232.1 Q 1131 229.6 1133.5 229.6 L 1180.5 229.6 Q 1183 229.6 1183 232.1 L 1183 294 Z" data-base-ui-click-trigger="" fill="oklch(0.84 0.04 85)" id="base-ui-_R_1tm5rak6klubsnlb_" role="button" tabindex="0"></path><text class="text-foreground" fill="currentColor" font-size="14" pointer-events="none" text-anchor="middle" x="1157" y="225.6">11.9</text></g><g><path aria-expanded="false" aria-haspopup="dialog" class="outline-none focus:outline-none" d="M 1195 294 L 1195 198.00588235294117 Q 1195 195.50588235294117 1197.5 195.50588235294117 L 1244.5 195.50588235294117 Q 1247 195.50588235294117 1247 198.00588235294117 L 1247 294 Z" data-base-ui-click-trigger="" fill="oklch(0.82 0.035 25)" id="base-ui-_R_1tq5rak6klubsnlb_" role="button" tabindex="0"></path><text class="text-foreground" fill="currentColor" font-size="14" pointer-events="none" text-anchor="middle" x="1221" y="191.50588235294117">18.2</text></g><text class="text-grey-150" fill="currentColor" font-size="12" text-anchor="middle" x="1061" y="308">DTU</text></g><g><g><path aria-expanded="false" aria-haspopup="dialog" class="outline-none focus:outline-none" d="M 1541 294 L 1541 246.1705882352941 Q 1541 243.6705882352941 1543.5 243.6705882352941 L 1590.5 243.6705882352941 Q 1593 243.6705882352941 1593 246.1705882352941 L 1593 294 Z" data-base-ui-click-trigger="" fill="#1a1a1a" id="base-ui-_R_1t67rak6klubsnlb_" role="button" tabindex="0"></path><text class="text-foreground" fill="currentColor" font-size="14" pointer-events="none" text-anchor="middle" x="1567" y="239.6705882352941">9.3</text></g><g><path aria-expanded="false" aria-haspopup="dialog" class="outline-none focus:outline-none" d="M 1605 294 L 1605 195.29999999999998 Q 1605 192.79999999999998 1607.5 192.79999999999998 L 1654.5 192.79999999999998 Q 1657 192.79999999999998 1657 195.29999999999998 L 1657 294 Z" data-base-ui-click-trigger="" fill="oklch(0.84 0.07 340)" id="base-ui-_R_1ta7rak6klubsnlb_" role="button" tabindex="0"></path><text class="text-foreground" fill="currentColor" font-size="14" pointer-events="none" text-anchor="middle" x="1631" y="188.79999999999998">18.7</text></g><g><path aria-expanded="false" aria-haspopup="dialog" class="outline-none focus:outline-none" d="M 1669 294 L 1669 159.04117647058823 Q 1669 156.54117647058823 1671.5 156.54117647058823 L 1718.5 156.54117647058823 Q 1721 156.54117647058823 1721 159.04117647058823 L 1721 294 Z" data-base-ui-click-trigger="" fill="oklch(0.8 0.038 175)" id="base-ui-_R_1te7rak6klubsnlb_" role="button" tabindex="0"></path><text class="text-foreground" fill="currentColor" font-size="14" pointer-events="none" text-anchor="middle" x="1695" y="152.54117647058823">25.4</text></g><g><path aria-expanded="false" aria-haspopup="dialog" class="outline-none focus:outline-none" d="M 1733 294 L 1733 234.80588235294118 Q 1733 232.30588235294118 1735.5 232.30588235294118 L 1782.5 232.30588235294118 Q 1785 232.30588235294118 1785 234.80588235294118 L 1785 294 Z" data-base-ui-click-trigger="" fill="oklch(0.78 0.04 250)" id="base-ui-_R_1ti7rak6klubsnlb_" role="button" tabindex="0"></path><text class="text-foreground" fill="currentColor" font-size="14" pointer-events="none" text-anchor="middle" x="1759" y="228.30588235294118">11.4</text></g><g><path aria-expanded="false" aria-haspopup="dialog" class="outline-none focus:outline-none" d="M 1797 294 L 1797 167.69999999999996 Q 1797 165.19999999999996 1799.5 165.19999999999996 L 1846.5 165.19999999999996 Q 1849 165.19999999999996 1849 167.69999999999996 L 1849 294 Z" data-base-ui-click-trigger="" fill="oklch(0.84 0.04 85)" id="base-ui-_R_1tm7rak6klubsnlb_" role="button" tabindex="0"></path><text class="text-foreground" fill="currentColor" font-size="14" pointer-events="none" text-anchor="middle" x="1823" y="161.19999999999996">23.8</text></g><g><path aria-expanded="false" aria-haspopup="dialog" class="outline-none focus:outline-none" d="M 1861 294 L 1861 108.17058823529412 Q 1861 105.67058823529412 1863.5 105.67058823529412 L 1910.5 105.67058823529412 Q 1913 105.67058823529412 1913 108.17058823529412 L 1913 294 Z" data-base-ui-click-trigger="" fill="oklch(0.82 0.035 25)" id="base-ui-_R_1tq7rak6klubsnlb_" role="button" tabindex="0"></path><text class="text-foreground" fill="currentColor" font-size="14" pointer-events="none" text-anchor="middle" x="1887" y="101.67058823529412">34.8</text></g><text class="text-grey-150" fill="currentColor" font-size="12" text-anchor="middle" x="1727" y="308">ETH3D</text></g><g><g><path aria-expanded="false" aria-haspopup="dialog" class="outline-none focus:outline-none" d="M 2207 294 L 2207 4.5 Q 2207 2 2209.5 2 L 2256.5 2 Q 2259 2 2259 4.5 L 2259 294 Z" data-base-ui-click-trigger="" fill="#1a1a1a" id="base-ui-_R_1t69rak6klubsnlb_" role="button" tabindex="0"></path><text class="text-foreground" fill="currentColor" font-size="14" pointer-events="none" text-anchor="middle" x="2233" y="8">60.0</text></g><g><path aria-expanded="false" aria-haspopup="dialog" class="outline-none focus:outline-none" d="M 2271 294 L 2271 4.5 Q 2271 2 2273.5 2 L 2320.5 2 Q 2323 2 2323 4.5 L 2323 294 Z" data-base-ui-click-trigger="" fill="oklch(0.84 0.07 340)" id="base-ui-_R_1ta9rak6klubsnlb_" role="button" tabindex="0"></path><text class="text-foreground" fill="currentColor" font-size="14" pointer-events="none" text-anchor="middle" x="2297" y="8">60.2</text></g><g><path aria-expanded="false" aria-haspopup="dialog" class="outline-none focus:outline-none" d="M 2335 294 L 2335 4.5 Q 2335 2 2337.5 2 L 2384.5 2 Q 2387 2 2387 4.5 L 2387 294 Z" data-base-ui-click-trigger="" fill="oklch(0.8 0.038 175)" id="base-ui-_R_1te9rak6klubsnlb_" role="button" tabindex="0"></path><text class="text-foreground" fill="currentColor" font-size="14" pointer-events="none" text-anchor="middle" x="2361" y="8">74.8</text></g><g><path aria-expanded="false" aria-haspopup="dialog" class="outline-none focus:outline-none" d="M 2399 294 L 2399 4.5 Q 2399 2 2401.5 2 L 2448.5 2 Q 2451 2 2451 4.5 L 2451 294 Z" data-base-ui-click-trigger="" fill="oklch(0.78 0.04 250)" id="base-ui-_R_1ti9rak6klubsnlb_" role="button" tabindex="0"></path><text class="text-foreground" fill="currentColor" font-size="14" pointer-events="none" text-anchor="middle" x="2425" y="8">101.4</text></g><g><path aria-expanded="false" aria-haspopup="dialog" class="outline-none focus:outline-none" d="M 2463 294 L 2463 4.5 Q 2463 2 2465.5 2 L 2512.5 2 Q 2515 2 2515 4.5 L 2515 294 Z" data-base-ui-click-trigger="" fill="oklch(0.84 0.04 85)" id="base-ui-_R_1tm9rak6klubsnlb_" role="button" tabindex="0"></path><text class="text-foreground" fill="currentColor" font-size="14" pointer-events="none" text-anchor="middle" x="2489" y="8">93.3</text></g><g><path aria-expanded="false" aria-haspopup="dialog" class="outline-none focus:outline-none" d="M 2527 294 L 2527 4.5 Q 2527 2 2529.5 2 L 2576.5 2 Q 2579 2 2579 4.5 L 2579 294 Z" data-base-ui-click-trigger="" fill="oklch(0.82 0.035 25)" id="base-ui-_R_1tq9rak6klubsnlb_" role="button" tabindex="0"></path><text class="text-foreground" fill="currentColor" font-size="14" pointer-events="none" text-anchor="middle" x="2553" y="8">115.3</text></g><text class="text-grey-150" fill="currentColor" font-size="12" text-anchor="middle" x="2393" y="308">KITTI</text></g><g><g><path aria-expanded="false" aria-haspopup="dialog" class="outline-none focus:outline-none" d="M 2873 294 L 2873 261.3235294117647 Q 2873 258.8235294117647 2875.5 258.8235294117647 L 2922.5 258.8235294117647 Q 2925 258.8235294117647 2925 261.3235294117647 L 2925 294 Z" data-base-ui-click-trigger="" fill="#1a1a1a" id="base-ui-_R_1t6brak6klubsnlb_" role="button" tabindex="0"></path><text class="text-foreground" fill="currentColor" font-size="14" pointer-events="none" text-anchor="middle" x="2899" y="254.8235294117647">6.5</text></g><g><path aria-expanded="false" aria-haspopup="dialog" class="outline-none focus:outline-none" d="M 2937 294 L 2937 224.5235294117647 Q 2937 222.0235294117647 2939.5 222.0235294117647 L 2986.5 222.0235294117647 Q 2989 222.0235294117647 2989 224.5235294117647 L 2989 294 Z" data-base-ui-click-trigger="" fill="oklch(0.84 0.07 340)" id="base-ui-_R_1tabrak6klubsnlb_" role="button" tabindex="0"></path><text class="text-foreground" fill="currentColor" font-size="14" pointer-events="none" text-anchor="middle" x="2963" y="218.0235294117647">13.3</text></g><g><path aria-expanded="false" aria-haspopup="dialog" class="outline-none focus:outline-none" d="M 3001 294 L 3001 201.79411764705878 Q 3001 199.29411764705878 3003.5 199.29411764705878 L 3050.5 199.29411764705878 Q 3053 199.29411764705878 3053 201.79411764705878 L 3053 294 Z" data-base-ui-click-trigger="" fill="oklch(0.8 0.038 175)" id="base-ui-_R_1tebrak6klubsnlb_" role="button" tabindex="0"></path><text class="text-foreground" fill="currentColor" font-size="14" pointer-events="none" text-anchor="middle" x="3027" y="195.29411764705878">17.5</text></g><g><path aria-expanded="false" aria-haspopup="dialog" class="outline-none focus:outline-none" d="M 3065 294 L 3065 239.67647058823528 Q 3065 237.17647058823528 3067.5 237.17647058823528 L 3114.5 237.17647058823528 Q 3117 237.17647058823528 3117 239.67647058823528 L 3117 294 Z" data-base-ui-click-trigger="" fill="oklch(0.78 0.04 250)" id="base-ui-_R_1tibrak6klubsnlb_" role="button" tabindex="0"></path><text class="text-foreground" fill="currentColor" font-size="14" pointer-events="none" text-anchor="middle" x="3091" y="233.17647058823528">10.5</text></g><g><path aria-expanded="false" aria-haspopup="dialog" class="outline-none focus:outline-none" d="M 3129 294 L 3129 235.3470588235294 Q 3129 232.8470588235294 3131.5 232.8470588235294 L 3178.5 232.8470588235294 Q 3181 232.8470588235294 3181 235.3470588235294 L 3181 294 Z" data-base-ui-click-trigger="" fill="oklch(0.84 0.04 85)" id="base-ui-_R_1tmbrak6klubsnlb_" role="button" tabindex="0"></path><text class="text-foreground" fill="currentColor" font-size="14" pointer-events="none" text-anchor="middle" x="3155" y="228.8470588235294">11.3</text></g><g><path aria-expanded="false" aria-haspopup="dialog" class="outline-none focus:outline-none" d="M 3193 294 L 3193 187.18235294117645 Q 3193 184.68235294117645 3195.5 184.68235294117645 L 3242.5 184.68235294117645 Q 3245 184.68235294117645 3245 187.18235294117645 L 3245 294 Z" data-base-ui-click-trigger="" fill="oklch(0.82 0.035 25)" id="base-ui-_R_1tqbrak6klubsnlb_" role="button" tabindex="0"></path><text class="text-foreground" fill="currentColor" font-size="14" pointer-events="none" text-anchor="middle" x="3219" y="180.68235294117645">20.2</text></g><text class="text-grey-150" fill="currentColor" font-size="12" text-anchor="middle" x="3059" y="308">NRGBD</text></g><g><g><path aria-expanded="false" aria-haspopup="dialog" class="outline-none focus:outline-none" d="M 3539 294 L 3539 91.93529411764705 Q 3539 89.43529411764705 3541.5 89.43529411764705 L 3588.5 89.43529411764705 Q 3591 89.43529411764705 3591 91.93529411764705 L 3591 294 Z" data-base-ui-click-trigger="" fill="#1a1a1a" id="base-ui-_R_1t6drak6klubsnlb_" role="button" tabindex="0"></path><text class="text-foreground" fill="currentColor" font-size="14" pointer-events="none" text-anchor="middle" x="3565" y="85.43529411764705">37.8</text></g><g><path aria-expanded="false" aria-haspopup="dialog" class="outline-none focus:outline-none" d="M 3603 294 L 3603 83.81764705882352 Q 3603 81.31764705882352 3605.5 81.31764705882352 L 3652.5 81.31764705882352 Q 3655 81.31764705882352 3655 83.81764705882352 L 3655 294 Z" data-base-ui-click-trigger="" fill="oklch(0.84 0.07 340)" id="base-ui-_R_1tadrak6klubsnlb_" role="button" tabindex="0"></path><text class="text-foreground" fill="currentColor" font-size="14" pointer-events="none" text-anchor="middle" x="3629" y="77.31764705882352">39.3</text></g><g><path aria-expanded="false" aria-haspopup="dialog" class="outline-none focus:outline-none" d="M 3667 294 L 3667 56.217647058823495 Q 3667 53.717647058823495 3669.5 53.717647058823495 L 3716.5 53.717647058823495 Q 3719 53.717647058823495 3719 56.217647058823495 L 3719 294 Z" data-base-ui-click-trigger="" fill="oklch(0.8 0.038 175)" id="base-ui-_R_1tedrak6klubsnlb_" role="button" tabindex="0"></path><text class="text-foreground" fill="currentColor" font-size="14" pointer-events="none" text-anchor="middle" x="3693" y="49.717647058823495">44.4</text></g><g><path aria-expanded="false" aria-haspopup="dialog" class="outline-none focus:outline-none" d="M 3731 294 L 3731 51.888235294117656 Q 3731 49.388235294117656 3733.5 49.388235294117656 L 3780.5 49.388235294117656 Q 3783 49.388235294117656 3783 51.888235294117656 L 3783 294 Z" data-base-ui-click-trigger="" fill="oklch(0.78 0.04 250)" id="base-ui-_R_1tidrak6klubsnlb_" role="button" tabindex="0"></path><text class="text-foreground" fill="currentColor" font-size="14" pointer-events="none" text-anchor="middle" x="3757" y="45.388235294117656">45.2</text></g><g><path aria-expanded="false" aria-haspopup="dialog" class="outline-none focus:outline-none" d="M 3795 294 L 3795 21.582352941176467 Q 3795 19.082352941176467 3797.5 19.082352941176467 L 3844.5 19.082352941176467 Q 3847 19.082352941176467 3847 21.582352941176467 L 3847 294 Z" data-base-ui-click-trigger="" fill="oklch(0.84 0.04 85)" id="base-ui-_R_1tmdrak6klubsnlb_" role="button" tabindex="0"></path><text class="text-foreground" fill="currentColor" font-size="14" pointer-events="none" text-anchor="middle" x="3821" y="15.082352941176467">50.8</text></g><g><path aria-expanded="false" aria-haspopup="dialog" class="outline-none focus:outline-none" d="M 3859 294 L 3859 39.98235294117646 Q 3859 37.48235294117646 3861.5 37.48235294117646 L 3908.5 37.48235294117646 Q 3911 37.48235294117646 3911 39.98235294117646 L 3911 294 Z" data-base-ui-click-trigger="" fill="oklch(0.82 0.035 25)" id="base-ui-_R_1tqdrak6klubsnlb_" role="button" tabindex="0"></path><text class="text-foreground" fill="currentColor" font-size="14" pointer-events="none" text-anchor="middle" x="3885" y="33.48235294117646">47.4</text></g><text class="text-grey-150" fill="currentColor" font-size="12" text-anchor="middle" x="3725" y="308">7-Scenes</text></g><g><g><path aria-expanded="false" aria-haspopup="dialog" class="outline-none focus:outline-none" d="M 4205 294 L 4205 67.04117647058823 Q 4205 64.54117647058823 4207.5 64.54117647058823 L 4254.5 64.54117647058823 Q 4257 64.54117647058823 4257 67.04117647058823 L 4257 294 Z" data-base-ui-click-trigger="" fill="#1a1a1a" id="base-ui-_R_1t6frak6klubsnlb_" role="button" tabindex="0"></path><text class="text-foreground" fill="currentColor" font-size="14" pointer-events="none" text-anchor="middle" x="4231" y="60.541176470588226">42.4</text></g><g><path aria-expanded="false" aria-haspopup="dialog" class="outline-none focus:outline-none" d="M 4269 294 L 4269 67.04117647058823 Q 4269 64.54117647058823 4271.5 64.54117647058823 L 4318.5 64.54117647058823 Q 4321 64.54117647058823 4321 67.04117647058823 L 4321 294 Z" data-base-ui-click-trigger="" fill="oklch(0.84 0.07 340)" id="base-ui-_R_1tafrak6klubsnlb_" role="button" tabindex="0"></path><text class="text-foreground" fill="currentColor" font-size="14" pointer-events="none" text-anchor="middle" x="4295" y="60.541176470588226">42.4</text></g><g><path aria-expanded="false" aria-haspopup="dialog" class="outline-none focus:outline-none" d="M 4333 294 L 4333 42.14705882352939 Q 4333 39.64705882352939 4335.5 39.64705882352939 L 4382.5 39.64705882352939 Q 4385 39.64705882352939 4385 42.14705882352939 L 4385 294 Z" data-base-ui-click-trigger="" fill="oklch(0.8 0.038 175)" id="base-ui-_R_1tefrak6klubsnlb_" role="button" tabindex="0"></path><text class="text-foreground" fill="currentColor" font-size="14" pointer-events="none" text-anchor="middle" x="4359" y="35.64705882352939">47.0</text></g><g><path aria-expanded="false" aria-haspopup="dialog" class="outline-none focus:outline-none" d="M 4397 294 L 4397 78.94705882352939 Q 4397 76.44705882352939 4399.5 76.44705882352939 L 4446.5 76.44705882352939 Q 4449 76.44705882352939 4449 78.94705882352939 L 4449 294 Z" data-base-ui-click-trigger="" fill="oklch(0.78 0.04 250)" id="base-ui-_R_1tifrak6klubsnlb_" role="button" tabindex="0"></path><text class="text-foreground" fill="currentColor" font-size="14" pointer-events="none" text-anchor="middle" x="4423" y="72.44705882352939">40.2</text></g><g><path aria-expanded="false" aria-haspopup="dialog" class="outline-none focus:outline-none" d="M 4461 294 L 4461 4.5 Q 4461 2 4463.5 2 L 4510.5 2 Q 4513 2 4513 4.5 L 4513 294 Z" data-base-ui-click-trigger="" fill="oklch(0.84 0.04 85)" id="base-ui-_R_1tmfrak6klubsnlb_" role="button" tabindex="0"></path><text class="text-foreground" fill="currentColor" font-size="14" pointer-events="none" text-anchor="middle" x="4487" y="8">55.1</text></g><g><path aria-expanded="false" aria-haspopup="dialog" class="outline-none focus:outline-none" d="M 4525 294 L 4525 4.5 Q 4525 2 4527.5 2 L 4574.5 2 Q 4577 2 4577 4.5 L 4577 294 Z" data-base-ui-click-trigger="" fill="oklch(0.82 0.035 25)" id="base-ui-_R_1tqfrak6klubsnlb_" role="button" tabindex="0"></path><text class="text-foreground" fill="currentColor" font-size="14" pointer-events="none" text-anchor="middle" x="4551" y="8">60.8</text></g><text class="text-grey-150" fill="currentColor" font-size="12" text-anchor="middle" x="4391" y="308">T&amp;T</text></g><g><g><path aria-expanded="false" aria-haspopup="dialog" class="outline-none focus:outline-none" d="M 4871 294 L 4871 229.3941176470588 Q 4871 226.8941176470588 4873.5 226.8941176470588 L 4920.5 226.8941176470588 Q 4923 226.8941176470588 4923 229.3941176470588 L 4923 294 Z" data-base-ui-click-trigger="" fill="#1a1a1a" id="base-ui-_R_1t6hrak6klubsnlb_" role="button" tabindex="0"></path><text class="text-foreground" fill="currentColor" font-size="14" pointer-events="none" text-anchor="middle" x="4897" y="222.8941176470588">12.4</text></g><g><path aria-expanded="false" aria-haspopup="dialog" class="outline-none focus:outline-none" d="M 4935 294 L 4935 211.53529411764706 Q 4935 209.03529411764706 4937.5 209.03529411764706 L 4984.5 209.03529411764706 Q 4987 209.03529411764706 4987 211.53529411764706 L 4987 294 Z" data-base-ui-click-trigger="" fill="oklch(0.84 0.07 340)" id="base-ui-_R_1tahrak6klubsnlb_" role="button" tabindex="0"></path><text class="text-foreground" fill="currentColor" font-size="14" pointer-events="none" text-anchor="middle" x="4961" y="205.03529411764706">15.7</text></g><g><path aria-expanded="false" aria-haspopup="dialog" class="outline-none focus:outline-none" d="M 4999 294 L 4999 202.33529411764707 Q 4999 199.83529411764707 5001.5 199.83529411764707 L 5048.5 199.83529411764707 Q 5051 199.83529411764707 5051 202.33529411764707 L 5051 294 Z" data-base-ui-click-trigger="" fill="oklch(0.8 0.038 175)" id="base-ui-_R_1tehrak6klubsnlb_" role="button" tabindex="0"></path><text class="text-foreground" fill="currentColor" font-size="14" pointer-events="none" text-anchor="middle" x="5025" y="195.83529411764707">17.4</text></g><g><path aria-expanded="false" aria-haspopup="dialog" class="outline-none focus:outline-none" d="M 5063 294 L 5063 98.42941176470588 Q 5063 95.92941176470588 5065.5 95.92941176470588 L 5112.5 95.92941176470588 Q 5115 95.92941176470588 5115 98.42941176470588 L 5115 294 Z" data-base-ui-click-trigger="" fill="oklch(0.78 0.04 250)" id="base-ui-_R_1tihrak6klubsnlb_" role="button" tabindex="0"></path><text class="text-foreground" fill="currentColor" font-size="14" pointer-events="none" text-anchor="middle" x="5089" y="91.92941176470588">36.6</text></g><g><path aria-expanded="false" aria-haspopup="dialog" class="outline-none focus:outline-none" d="M 5127 294 L 5127 139.55882352941174 Q 5127 137.05882352941174 5129.5 137.05882352941174 L 5176.5 137.05882352941174 Q 5179 137.05882352941174 5179 139.55882352941174 L 5179 294 Z" data-base-ui-click-trigger="" fill="oklch(0.84 0.04 85)" id="base-ui-_R_1tmhrak6klubsnlb_" role="button" tabindex="0"></path><text class="text-foreground" fill="currentColor" font-size="14" pointer-events="none" text-anchor="middle" x="5153" y="133.05882352941174">29.0</text></g><g><path aria-expanded="false" aria-haspopup="dialog" class="outline-none focus:outline-none" d="M 5191 294 L 5191 96.26470588235294 Q 5191 93.76470588235294 5193.5 93.76470588235294 L 5240.5 93.76470588235294 Q 5243 93.76470588235294 5243 96.26470588235294 L 5243 294 Z" data-base-ui-click-trigger="" fill="oklch(0.82 0.035 25)" id="base-ui-_R_1tqhrak6klubsnlb_" role="button" tabindex="0"></path><text class="text-foreground" fill="currentColor" font-size="14" pointer-events="none" text-anchor="middle" x="5217" y="89.76470588235294">37.0</text></g><text class="text-grey-150" fill="currentColor" font-size="12" text-anchor="middle" x="5057" y="308">ScanNet</text></g></g></svg>