<svg aria-label="Animated diagram of the candidate selector: DFlash's independent top picks collide in a stutter and die at verification; DFlash 2 keeps the top candidates per position and a selector traces one path through them, so the verifier accepts the whole block." class="block h-auto w-full min-w-[600px]" role="img" style="font-family:inherit" viewbox="0 0 764 348" xmlns="http://www.w3.org/2000/svg"><defs><pattern height="8" id="sf-hatch" patterntransform="rotate(135)" patternunits="userSpaceOnUse" width="8"><rect fill="transparent" height="8" width="8"></rect><rect fill="rgba(74,222,128,0.16)" height="8" width="3"></rect></pattern></defs><g><rect fill="none" height="26" rx="7" stroke="rgba(255,255,255,0.16)" width="92" x="24" y="50"></rect><text dominant-baseline="central" fill="rgba(255,255,255,0.55)" font-size="13" text-anchor="middle" x="70" y="63">Diffusion</text></g><g><rect fill="none" height="26" rx="7" stroke="rgba(255,255,255,0.16)" width="92" x="24" y="80"></rect><text dominant-baseline="central" fill="rgba(255,255,255,0.55)" font-size="13" text-anchor="middle" x="70" y="93">is</text></g><g><rect fill="none" height="26" rx="7" stroke="rgba(255,255,255,0.16)" width="92" x="24" y="110"></rect><text dominant-baseline="central" fill="rgba(255,255,255,0.55)" font-size="13" text-anchor="middle" x="70" y="123">good</text></g><g><rect fill="url(#sf-hatch)" height="30" rx="7" stroke="rgba(22,101,52,0.9)" width="92" x="24" y="201"></rect><text dominant-baseline="central" fill="#4ade80" font-size="13" text-anchor="middle" x="70" y="216">⟨mask⟩</text></g><g><rect fill="url(#sf-hatch)" height="30" rx="7" stroke="rgba(22,101,52,0.9)" width="92" x="24" y="235"></rect><text dominant-baseline="central" fill="#4ade80" font-size="13" text-anchor="middle" x="70" y="250">⟨mask⟩</text></g><g><rect fill="url(#sf-hatch)" height="30" rx="7" stroke="rgba(22,101,52,0.9)" width="92" x="24" y="269"></rect><text dominant-baseline="central" fill="#4ade80" font-size="13" text-anchor="middle" x="70" y="284">⟨mask⟩</text></g><rect fill="rgba(255,255,255,0.02)" height="320" rx="12" stroke="rgba(255,255,255,0.16)" width="430" x="170" y="20"></rect><text fill="rgba(255,255,255,0.87)" font-size="16" font-weight="600" letter-spacing="0.3" x="186" y="46">Independent Top-1 Picks</text><rect fill="#302918" height="34" rx="7" stroke="rgba(217,119,6,0.65)" width="92" x="24" y="163"></rect><text dominant-baseline="central" fill="#fbbf24" font-size="14" text-anchor="middle" x="70" y="180">for</text><g style="opacity:0;transition:opacity 500ms ease"><line stroke="rgba(255,255,255,0.30)" stroke-width="2.5" x1="119" x2="203" y1="180" y2="104"></line><line stroke="rgba(255,255,255,0.10)" stroke-dasharray="4 5" stroke-width="2" x1="298" x2="536" y1="104" y2="104"></line><text fill="#f87171" font-size="15" font-weight="700" x="306" y="90">✗</text><text fill="#f87171" font-size="11.5" text-anchor="middle" x="323" y="138">same word, twice</text></g><g stroke="rgba(255,255,255,0.10)" stroke-width="1" style="opacity:0;transition:opacity 500ms ease"><line x1="116" x2="206" y1="180" y2="104"></line><line x1="116" x2="206" y1="180" y2="180"></line><line x1="116" x2="206" y1="180" y2="256"></line><line x1="298" x2="348" y1="104" y2="104"></line><line x1="298" x2="348" y1="104" y2="180"></line><line x1="298" x2="348" y1="104" y2="256"></line><line x1="298" x2="348" y1="180" y2="104"></line><line x1="298" x2="348" y1="180" y2="180"></line><line x1="298" x2="348" y1="180" y2="256"></line><line x1="298" x2="348" y1="256" y2="104"></line><line x1="298" x2="348" y1="256" y2="180"></line><line x1="298" x2="348" y1="256" y2="256"></line><line x1="440" x2="490" y1="104" y2="104"></line><line x1="440" x2="490" y1="104" y2="180"></line><line x1="440" x2="490" y1="104" y2="256"></line><line x1="440" x2="490" y1="180" y2="104"></line><line x1="440" x2="490" y1="180" y2="180"></line><line x1="440" x2="490" y1="180" y2="256"></line><line x1="440" x2="490" y1="256" y2="104"></line><line x1="440" x2="490" y1="256" y2="180"></line><line x1="440" x2="490" y1="256" y2="256"></line></g><path d="M 119 180 L 203 180 M 301 180 L 345 104 M 443 104 L 487 104" fill="none" opacity="0" stroke="#34d399" stroke-dasharray="900" stroke-dashoffset="900" stroke-linecap="round" stroke-linejoin="round" stroke-width="3" style="transition:stroke-dashoffset 900ms ease, opacity 300ms ease"></path><g><text fill="rgba(255,255,255,0.55)" font-size="11" text-anchor="middle" x="252" y="72">position <!-- -->1</text><g style="opacity:1;transition:opacity 500ms ease"><rect fill="#1c1c22" height="34" rx="7" stroke="rgba(255,255,255,0.16)" style="transition:fill 300ms ease, stroke 300ms ease" width="92" x="206" y="87"></rect><text dominant-baseline="central" fill="rgba(255,255,255,0.55)" font-size="13" text-anchor="middle" x="252" y="104">decoding</text></g><g style="opacity:0;transition:opacity 500ms ease"><rect fill="#1c1c22" height="34" rx="7" stroke="rgba(255,255,255,0.16)" style="transition:fill 300ms ease, stroke 300ms ease" width="92" x="206" y="163"></rect><text dominant-baseline="central" fill="rgba(255,255,255,0.55)" font-size="13" text-anchor="middle" x="252" y="180">speculative</text></g><g style="opacity:0;transition:opacity 500ms ease"><rect fill="#1c1c22" height="34" rx="7" stroke="rgba(255,255,255,0.16)" style="transition:fill 300ms ease, stroke 300ms ease" width="92" x="206" y="239"></rect><text dominant-baseline="central" fill="rgba(255,255,255,0.55)" font-size="13" text-anchor="middle" x="252" y="256">slow</text></g><text fill="rgba(255,255,255,0.30)" font-size="15" style="opacity:0;transition:opacity 500ms ease" text-anchor="middle" x="252" y="298">⋮</text></g><g><text fill="rgba(255,255,255,0.55)" font-size="11" text-anchor="middle" x="394" y="72">position <!-- -->2</text><g style="opacity:1;transition:opacity 500ms ease"><rect fill="#1c1c22" height="34" rx="7" stroke="rgba(255,255,255,0.16)" style="transition:fill 300ms ease, stroke 300ms ease" width="92" x="348" y="87"></rect><text dominant-baseline="central" fill="rgba(255,255,255,0.55)" font-size="13" text-anchor="middle" x="394" y="104">decoding</text></g><g style="opacity:0;transition:opacity 500ms ease"><rect fill="#1c1c22" height="34" rx="7" stroke="rgba(255,255,255,0.16)" style="transition:fill 300ms ease, stroke 300ms ease" width="92" x="348" y="163"></rect><text dominant-baseline="central" fill="rgba(255,255,255,0.55)" font-size="13" text-anchor="middle" x="394" y="180">thinking</text></g><g style="opacity:0;transition:opacity 500ms ease"><rect fill="#1c1c22" height="34" rx="7" stroke="rgba(255,255,255,0.16)" style="transition:fill 300ms ease, stroke 300ms ease" width="92" x="348" y="239"></rect><text dominant-baseline="central" fill="rgba(255,255,255,0.55)" font-size="13" text-anchor="middle" x="394" y="256">models</text></g><text fill="rgba(255,255,255,0.30)" font-size="15" style="opacity:0;transition:opacity 500ms ease" text-anchor="middle" x="394" y="298">⋮</text></g><g><text fill="rgba(255,255,255,0.55)" font-size="11" text-anchor="middle" x="536" y="72">position <!-- -->3</text><g style="opacity:1;transition:opacity 500ms ease"><rect fill="#1c1c22" height="34" rx="7" stroke="rgba(255,255,255,0.16)" style="transition:fill 300ms ease, stroke 300ms ease" width="92" x="490" y="87"></rect><text dominant-baseline="central" fill="rgba(255,255,255,0.55)" font-size="13" text-anchor="middle" x="536" y="104">⟨eos⟩</text></g><g style="opacity:0;transition:opacity 500ms ease"><rect fill="#1c1c22" height="34" rx="7" stroke="rgba(255,255,255,0.16)" style="transition:fill 300ms ease, stroke 300ms ease" width="92" x="490" y="163"></rect><text dominant-baseline="central" fill="rgba(255,255,255,0.55)" font-size="13" text-anchor="middle" x="536" y="180">again</text></g><g style="opacity:0;transition:opacity 500ms ease"><rect fill="#1c1c22" height="34" rx="7" stroke="rgba(255,255,255,0.16)" style="transition:fill 300ms ease, stroke 300ms ease" width="92" x="490" y="239"></rect><text dominant-baseline="central" fill="rgba(255,255,255,0.55)" font-size="13" text-anchor="middle" x="536" y="256">…</text></g><text fill="rgba(255,255,255,0.30)" font-size="15" style="opacity:0;transition:opacity 500ms ease" text-anchor="middle" x="536" y="298">⋮</text></g><text fill="rgba(255,255,255,0.55)" font-size="11.5" style="opacity:0;transition:opacity 500ms ease" text-anchor="middle" x="385" y="326">all adjacent pairs scored at once → one path kept</text><path d="M610 180 h19 m-5 -5 l5 5 -5 5" fill="none" stroke="rgba(255,255,255,0.30)" stroke-width="1.5"></path><text fill="rgba(255,255,255,0.55)" font-size="11" text-anchor="middle" x="692" y="64">accepted output</text><g style="opacity:1;transition:opacity 500ms ease"><rect fill="#302918" height="30" rx="7" stroke="rgba(217,119,6,0.65)" width="92" x="646" y="88"></rect><text dominant-baseline="central" fill="#fbbf24" font-size="13" text-anchor="middle" x="692" y="103">for</text></g><g style="opacity:0.35;transition:opacity 500ms ease"><rect fill="none" height="30" rx="7" stroke="rgba(255,255,255,0.16)" stroke-dasharray="4 4" width="92" x="646" y="124"></rect></g><g style="opacity:0.35;transition:opacity 500ms ease"><rect fill="none" height="30" rx="7" stroke="rgba(255,255,255,0.16)" stroke-dasharray="4 4" width="92" x="646" y="164"></rect></g><g style="opacity:0.35;transition:opacity 500ms ease"><rect fill="none" height="30" rx="7" stroke="rgba(255,255,255,0.16)" stroke-dasharray="4 4" width="92" x="646" y="204"></rect></g></svg>