<svg width="152" height="134" viewBox="0 0 152 134" fill="none" xmlns="http://www.w3.org/2000/svg">
<rect x="44.4473" width="8.88916" height="8.88916" fill="#FF6529"/>
<rect x="44.4473" y="8.8877" width="8.88916" height="8.88916" fill="#FF6529"/>
<rect x="53.3369" y="8.8877" width="8.88916" height="8.88916" fill="#FF6529"/>
<rect x="71.1157" y="8.8877" width="8.88916" height="8.88916" fill="#FF6529"/>
<rect x="80.0029" y="8.8877" width="8.88916" height="8.88916" fill="#FA500F"/>
<rect x="80.0029" width="8.88916" height="8.88916" fill="#FF6529"/>
<rect x="44.4473" y="17.7793" width="8.88916" height="8.88916" fill="#FF8204"/>
<rect x="35.5576" y="17.7793" width="8.88916" height="8.88916" fill="#FF6529"/>
<rect x="35.5576" y="26.666" width="8.88916" height="8.88916" fill="#FF6529"/>
<rect x="26.6704" y="26.666" width="8.88916" height="8.88916" fill="#FF6529"/>
<rect x="88.8921" y="26.666" width="8.88916" height="8.88916" fill="#FF6529"/>
<rect x="88.8921" y="17.7793" width="8.88916" height="8.88916" fill="#FA500F"/>
<rect x="53.3369" y="17.7793" width="8.88916" height="8.88916" fill="#FF8204"/>
<rect x="62.2261" y="17.7793" width="8.88916" height="8.88916" fill="#FF8204"/>
<rect x="71.1157" y="17.7793" width="8.88916" height="8.88916" fill="#FF8204"/>
<rect x="80.0029" y="17.7793" width="8.88916" height="8.88916" fill="#FF8204"/>
<rect x="80.0029" y="26.666" width="8.88916" height="8.88916" fill="#FF8204"/>
<rect x="44.4473" y="26.666" width="8.88916" height="8.88916" fill="#FF8204"/>
<rect x="44.4473" y="35.5586" width="8.88916" height="8.88916" fill="#FF8204"/>
<rect x="80.0029" y="35.5586" width="8.88916" height="8.88916" fill="#FF8204"/>
<rect x="35.5576" y="35.5586" width="8.88916" height="8.88916" fill="#FF8204"/>
<rect x="26.6704" y="35.5586" width="8.88916" height="8.88916" fill="#FF6529"/>
<rect x="35.5576" y="44.4453" width="8.88916" height="8.88916" fill="#E51300"/>
<rect x="44.4473" y="44.4453" width="8.88916" height="8.88916" fill="#E51300"/>
<rect x="53.3369" y="44.4453" width="8.88916" height="8.88916" fill="#E51300"/>
<rect x="62.2261" y="44.4453" width="8.88916" height="8.88916" fill="#E51300"/>
<rect x="71.1157" y="44.4453" width="8.88916" height="8.88916" fill="#E51300"/>
<rect x="80.0029" y="44.4453" width="8.88916" height="8.88916" fill="#E51300"/>
<rect x="88.8921" y="44.4453" width="8.88916" height="8.88916" fill="#E51300"/>
<rect x="71.1157" y="35.5586" width="8.88916" height="8.88916" fill="#FF8204"/>
<rect x="53.3369" y="35.5586" width="8.88916" height="8.88916" fill="#FF8204"/>
<rect x="62.2261" y="35.5586" width="8.88916" height="8.88916" fill="#171722"/>
<rect x="88.8921" y="35.5586" width="8.88916" height="8.88916" fill="#FF8204"/>
<rect x="97.7817" y="35.5586" width="8.88916" height="8.88916" fill="#FA500F"/>
<rect x="97.7817" y="26.666" width="8.88916" height="8.88916" fill="#FA500F"/>
<rect x="62.2261" y="26.666" width="8.88916" height="8.88916" fill="#FF8204"/>
<rect x="53.3369" y="26.666" width="8.88916" height="8.88916" fill="#171722"/>
<rect x="71.1157" y="26.666" width="8.88916" height="8.88916" fill="#171722"/>
<rect x="26.6704" y="62.2246" width="8.88916" height="8.88916" fill="#FF6529"/>
<rect x="26.6704" y="53.332" width="8.88916" height="8.88916" fill="#FF6529"/>
<rect x="97.7817" y="62.2246" width="8.88916" height="8.88916" fill="#FA500F"/>
<rect x="97.7817" y="53.332" width="8.88916" height="8.88916" fill="#FA500F"/>
<rect x="17.7812" y="88.8945" width="8.88916" height="8.88916" fill="#FA500F"/>
<rect x="26.6704" y="97.7822" width="8.88916" height="8.88916" fill="#FF6529"/>
<rect x="35.5576" y="97.7822" width="8.88916" height="8.88916" fill="#FF6529"/>
<rect x="44.4473" y="97.7822" width="8.88916" height="8.88916" fill="#FF6529"/>
<rect x="53.3369" y="97.7822" width="8.88916" height="8.88916" fill="#FF6529"/>
<rect x="62.2261" y="97.7822" width="8.88916" height="8.88916" fill="#FF8204"/>
<rect x="71.1157" y="97.7822" width="8.88916" height="8.88916" fill="#FF8204"/>
<rect x="80.0029" y="97.7822" width="8.88916" height="8.88916" fill="#FF8204"/>
<rect x="44.4473" y="106.674" width="8.88916" height="8.88916" fill="#FF8204"/>
<rect x="53.3369" y="106.674" width="8.88916" height="8.88916" fill="#FF8204"/>
<rect x="62.2261" y="106.674" width="8.88916" height="8.88916" fill="#FF8204"/>
<rect x="62.2261" y="115.561" width="8.88916" height="8.88916" fill="#FF8204"/>
<rect x="62.2261" y="124.453" width="8.88916" height="8.88916" fill="#FA500F"/>
<rect x="71.1157" y="106.674" width="8.88916" height="8.88916" fill="#FF8204"/>
<rect x="80.0029" y="106.674" width="8.88916" height="8.88916" fill="#FF6529"/>
<rect x="88.8921" y="97.7822" width="8.88916" height="8.88916" fill="#FF8204"/>
<rect x="97.7817" y="97.7822" width="8.88916" height="8.88916" fill="#FF8204"/>
<rect x="26.6704" y="88.8945" width="8.88916" height="8.88916" fill="#FF8204"/>
<rect x="26.6704" y="80.0078" width="8.88916" height="8.88916" fill="#FF6529"/>
<rect x="26.6704" y="71.1113" width="8.88916" height="8.88916" fill="#FA500F"/>
<rect x="35.5576" y="88.8945" width="8.88916" height="8.88916" fill="#FF8204"/>
<rect x="35.5576" y="80.0078" width="8.88916" height="8.88916" fill="#FF8204"/>
<rect x="35.5576" y="71.1113" width="8.88916" height="8.88916" fill="#FF6529"/>
<rect x="35.5576" y="62.2246" width="8.88916" height="8.88916" fill="#FF8204"/>
<rect x="35.5576" y="53.332" width="8.88916" height="8.88916" fill="#FF8204"/>
<rect x="71.1157" y="62.2246" width="8.88916" height="8.88916" fill="#FF8204"/>
<rect x="71.1157" y="53.332" width="8.88916" height="8.88916" fill="#FF8204"/>
<rect x="62.2261" y="62.2246" width="8.88916" height="8.88916" fill="#FF8204"/>
<rect x="62.2261" y="53.332" width="8.88916" height="8.88916" fill="#FF8204"/>
<rect x="44.4473" y="88.8945" width="8.88916" height="8.88916" fill="#FF8204"/>
<rect x="44.4473" y="71.1113" width="8.88916" height="8.88916" fill="#FF8204"/>
<rect x="44.4473" y="80.0078" width="8.88916" height="8.88916" fill="#FF6529"/>
<rect x="44.4473" y="62.2246" width="8.88916" height="8.88916" fill="#FF8204"/>
<rect x="44.4473" y="53.332" width="8.88916" height="8.88916" fill="#FF8204"/>
<rect x="80.0029" y="62.2246" width="8.88916" height="8.88916" fill="#FF6529"/>
<rect x="80.0029" y="53.332" width="8.88916" height="8.88916" fill="#FF8204"/>
<rect x="53.3369" y="71.1113" width="8.88916" height="8.88916" fill="#FF8204"/>
<rect x="53.3369" y="88.8945" width="8.88916" height="8.88916" fill="#FF8204"/>
<rect x="53.3369" y="80.0078" width="8.88916" height="8.88916" fill="#FF6529"/>
<rect x="53.3369" y="62.2246" width="8.88916" height="8.88916" fill="#FF8204"/>
<rect x="53.3369" y="53.332" width="8.88916" height="8.88916" fill="#FF8204"/>
<rect x="88.8921" y="62.2246" width="8.88916" height="8.88916" fill="#FF6529"/>
<rect x="88.8921" y="53.332" width="8.88916" height="8.88916" fill="#FF8204"/>
<rect x="62.2261" y="88.8945" width="8.88916" height="8.88916" fill="#FF8204"/>
<rect x="62.2261" y="80.0078" width="8.88916" height="8.88916" fill="#FF8204"/>
<rect x="62.2261" y="71.1113" width="8.88916" height="8.88916" fill="#FF8204"/>
<rect x="71.1157" y="88.8945" width="8.88916" height="8.88916" fill="#FF8204"/>
<rect x="71.1157" y="80.0078" width="8.88916" height="8.88916" fill="#FF8204"/>
<rect x="71.1157" y="71.1113" width="8.88916" height="8.88916" fill="#FF6529"/>
<rect x="80.0029" y="88.8945" width="8.88916" height="8.88916" fill="#FF6529"/>
<rect x="80.0029" y="80.0078" width="8.88916" height="8.88916" fill="#FF8204"/>
<rect x="80.0029" y="71.1113" width="8.88916" height="8.88916" fill="#FF8204"/>
<rect x="88.8921" y="88.8945" width="8.88916" height="8.88916" fill="#FF8204"/>
<rect x="88.8921" y="80.0078" width="8.88916" height="8.88916" fill="#FF6529"/>
<rect x="88.8921" y="71.1113" width="8.88916" height="8.88916" fill="#FF8204"/>
<rect x="97.7817" y="88.8945" width="8.88916" height="8.88916" fill="#FF6529"/>
<rect x="97.7817" y="80.0078" width="8.88916" height="8.88916" fill="#FF6529"/>
<rect x="97.7817" y="71.1113" width="8.88916" height="8.88916" fill="#FF8204"/>
<rect x="106.671" y="88.8945" width="8.88916" height="8.88916" fill="#FF8204"/>
<rect x="106.671" y="80.0078" width="8.88916" height="8.88916" fill="#FF6529"/>
<rect x="106.671" y="71.1113" width="8.88916" height="8.88916" fill="#FA500F"/>
<rect x="115.561" y="80.0078" width="8.88916" height="8.88916" fill="#FA500F"/>
<rect x="115.561" y="88.8945" width="8.88916" height="8.88916" fill="#FA500F"/>
<rect x="115.561" y="97.7822" width="8.88916" height="8.88916" fill="#FA500F"/>
<rect x="17.7812" y="106.674" width="8.88916" height="8.88916" fill="#FA500F"/>
<rect x="106.671" y="106.674" width="8.88916" height="8.88916" fill="#FF8204"/>
<rect x="17.7812" y="115.561" width="8.88916" height="8.88916" fill="#FF6529"/>
<rect x="106.671" y="115.561" width="8.88916" height="8.88916" fill="#FF6529"/>
<rect x="106.671" y="124.453" width="8.88916" height="8.88916" fill="#FA500F"/>
<rect x="115.561" y="124.453" width="8.88916" height="8.88916" fill="#FA500F"/>
<rect x="115.561" y="106.674" width="8.88916" height="8.88916" fill="#FA500F"/>
<rect x="115.561" y="115.561" width="8.88916" height="8.88916" fill="#FA500F"/>
<rect x="106.671" y="97.7822" width="8.88916" height="8.88916" fill="#FF6529"/>
<rect x="17.7812" y="97.7822" width="8.88916" height="8.88916" fill="#FF6529"/>
<rect x="53.3369" y="115.561" width="8.88916" height="8.88916" fill="#FF8204"/>
<rect x="53.3369" y="124.453" width="8.88916" height="8.88916" fill="#FA500F"/>
<rect x="26.6704" y="124.453" width="8.88916" height="8.88916" fill="#FA500F"/>
<rect x="44.4473" y="115.561" width="8.88916" height="8.88916" fill="#FF8204"/>
<rect x="35.5576" y="115.561" width="8.88916" height="8.88916" fill="#FF8204"/>
<rect x="44.4473" y="124.453" width="8.88916" height="8.88916" fill="#FA500F"/>
<rect x="17.7812" y="124.453" width="8.88916" height="8.88916" fill="#FA500F"/>
<rect x="80.0029" y="124.453" width="8.88916" height="8.88916" fill="#FA500F"/>
<rect x="35.5576" y="106.674" width="8.88916" height="8.88916" fill="#FF6529"/>
<rect x="80.0029" y="115.561" width="8.88916" height="8.88916" fill="#FF8204"/>
<rect x="88.8921" y="115.561" width="8.88916" height="8.88916" fill="#FF8204"/>
<rect x="88.8921" y="106.674" width="8.88916" height="8.88916" fill="#FF6529"/>
<rect x="97.7817" y="106.674" width="8.88916" height="8.88916" fill="#FF6529"/>
<rect x="97.7817" y="115.561" width="8.88916" height="8.88916" fill="#FF8204"/>
<rect x="97.7817" y="124.453" width="8.88916" height="8.88916" fill="#FA500F"/>
<rect x="26.6704" y="115.561" width="8.88916" height="8.88916" fill="#FF8204"/>
<rect x="26.6704" y="124.453" width="8.88916" height="8.88916" fill="#FA500F"/>
<rect y="124.453" width="8.88916" height="8.88916" fill="#FA500F"/>
<rect x="35.5576" y="124.453" width="8.88916" height="8.88916" fill="#FA500F"/>
<rect x="8.88916" y="124.453" width="8.88916" height="8.88916" fill="#FA500F"/>
<rect x="88.8921" y="124.453" width="8.88916" height="8.88916" fill="#FA500F"/>
<rect x="71.1157" y="115.561" width="8.88916" height="8.88916" fill="#FF8204"/>
<rect x="71.1157" y="124.453" width="8.88916" height="8.88916" fill="#FA500F"/>
<rect x="26.6704" y="106.674" width="8.88916" height="8.88916" fill="#FF8204"/>
<rect x="62.2261" y="53.332" width="8.88916" height="8.88916" fill="#FEC63A"/>
<rect x="124.448" y="115.561" width="8.88916" height="8.88916" fill="#FA500F"/>
<rect x="133.337" y="106.674" width="8.88916" height="8.88916" fill="#FA500F"/>
<rect x="133.337" y="97.7822" width="8.88916" height="8.88916" fill="#FA500F"/>
<rect x="142.229" y="88.8945" width="8.88916" height="8.88916" fill="#FA500F"/>
<rect x="133.337" y="62.2246" width="8.88916" height="8.88916" fill="#FA500F"/>
<rect x="142.229" y="80.0078" width="8.88916" height="8.88916" fill="#FA500F"/>
<rect x="142.229" y="71.1113" width="8.88916" height="8.88916" fill="#FA500F"/>
</svg>
